<?xml version="1.0" standalone="no"?>
<!DOCTYPE svg PUBLIC "-//W3C//DTD SVG 20010904//EN"
 "http://www.w3.org/TR/2001/REC-SVG-20010904/DTD/svg10.dtd">
<svg version="1.0" xmlns="http://www.w3.org/2000/svg"
 width="500.000000pt" height="500.000000pt" viewBox="0 0 500.000000 500.000000"
 preserveAspectRatio="xMidYMid meet">

<g transform="translate(0.000000,500.000000) scale(0.100000,-0.100000)"
fill="#000000" stroke="none">
<path d="M810 2475 l0 -2275 1690 0 1690 0 0 1823 0 1822 -453 453 -452 452
-1238 0 -1237 0 0 -2275z m2440 1780 l0 -445 445 0 445 0 0 -1780 0 -1780
-1640 0 -1640 0 0 2225 0 2225 1195 0 1195 0 0 -445z m455 5 l400 -400 -403 0
-402 0 0 400 c0 220 1 400 3 400 1 0 182 -180 402 -400z"/>
<path d="M1173 3744 c-54 -27 -78 -90 -77 -204 0 -52 5 -111 12 -131 27 -78
106 -117 174 -85 56 27 72 65 76 189 5 120 -9 176 -52 216 -31 30 -92 36 -133
15z m94 -42 c25 -16 43 -82 43 -160 0 -139 -20 -182 -85 -182 -50 0 -68 32
-73 135 -6 106 3 166 29 194 20 21 63 28 86 13z"/>
<path d="M1893 3744 c-54 -27 -78 -90 -78 -209 0 -84 4 -108 23 -147 40 -82
131 -101 194 -41 37 36 48 78 48 193 0 102 -17 157 -58 193 -29 26 -90 31
-129 11z m94 -42 c42 -27 59 -211 27 -292 -26 -65 -96 -70 -126 -10 -20 39
-26 209 -9 253 19 49 71 73 108 49z"/>
<path d="M2253 3744 c-54 -27 -78 -90 -78 -209 0 -84 4 -108 23 -147 54 -110
195 -98 231 21 6 21 11 81 11 132 0 100 -17 156 -58 192 -29 26 -90 31 -129
11z m111 -67 c17 -23 22 -46 24 -124 5 -112 -14 -179 -53 -189 -77 -19 -105
25 -105 168 0 102 10 145 38 166 27 20 72 10 96 -21z"/>
<path d="M2611 3743 c-54 -27 -75 -86 -75 -208 -1 -84 3 -107 22 -147 54 -110
195 -98 231 21 6 21 11 81 11 132 0 112 -21 167 -72 199 -40 24 -72 25 -117 3z
m113 -66 c16 -22 21 -46 24 -123 5 -112 -14 -180 -53 -190 -77 -19 -105 25
-105 168 0 102 10 145 38 166 27 20 72 10 96 -21z"/>
<path d="M3691 3743 c-54 -27 -75 -86 -75 -208 -1 -124 24 -188 82 -212 72
-30 147 8 171 86 6 21 11 81 11 132 0 112 -21 167 -72 199 -40 24 -72 25 -117
3z m112 -65 c25 -34 36 -179 18 -245 -16 -57 -35 -75 -80 -71 -54 4 -71 45
-71 170 0 102 10 145 38 166 27 20 72 10 95 -20z"/>
<path d="M1535 3710 c-27 -22 -50 -45 -50 -52 0 -23 32 -19 64 7 l31 27 0
-186 0 -186 25 0 25 0 0 215 0 215 -22 -1 c-13 0 -45 -18 -73 -39z"/>
<path d="M2975 3710 c-56 -44 -64 -57 -41 -66 10 -4 31 5 51 20 l35 27 0 -185
0 -186 25 0 25 0 0 215 0 215 -22 -1 c-13 0 -45 -18 -73 -39z"/>
<path d="M3333 3709 c-29 -22 -53 -44 -53 -50 0 -22 32 -20 65 5 l35 27 0
-185 0 -186 25 0 25 0 0 215 0 215 -22 0 c-13 0 -47 -18 -75 -41z"/>
<path d="M1195 3043 c-31 -8 -73 -53 -87 -92 -7 -20 -12 -79 -12 -131 0 -79 3
-103 23 -143 47 -96 159 -106 214 -18 18 30 22 54 25 147 4 95 1 118 -16 157
-28 64 -87 96 -147 80z m89 -76 c19 -25 21 -42 21 -146 0 -96 -3 -122 -18
-145 -16 -23 -24 -27 -60 -24 -37 3 -44 8 -60 38 -15 29 -18 54 -15 147 3 103
5 114 28 138 32 34 75 31 104 -8z"/>
<path d="M1915 3043 c-31 -8 -73 -53 -87 -92 -7 -20 -13 -79 -13 -131 1 -79 5
-103 24 -143 47 -96 159 -106 214 -18 18 30 22 54 25 147 4 95 1 118 -16 157
-28 64 -87 96 -147 80z m89 -76 c19 -25 21 -42 21 -145 0 -98 -3 -121 -19
-145 -16 -24 -25 -28 -60 -25 -36 3 -43 8 -58 38 -18 36 -25 172 -12 238 15
73 86 95 128 39z"/>
<path d="M2275 3043 c-31 -8 -73 -53 -87 -92 -7 -20 -12 -79 -12 -131 0 -75 5
-105 21 -142 44 -97 161 -107 216 -19 18 30 22 54 25 147 4 95 1 118 -16 157
-28 64 -87 96 -147 80z m89 -76 c19 -25 21 -42 21 -145 0 -98 -3 -121 -19
-145 -16 -24 -25 -28 -60 -25 -36 3 -43 8 -58 38 -18 36 -25 172 -12 238 15
73 86 95 128 39z"/>
<path d="M2995 3043 c-31 -8 -73 -53 -87 -92 -7 -20 -12 -79 -12 -131 0 -75 5
-105 21 -142 44 -97 161 -107 216 -19 18 30 22 54 25 147 4 95 1 118 -16 157
-28 64 -87 96 -147 80z m89 -76 c19 -25 21 -42 21 -145 0 -98 -3 -121 -19
-145 -16 -24 -25 -28 -60 -25 -59 4 -76 42 -76 170 0 101 7 134 35 162 26 25
74 17 99 -17z"/>
<path d="M3355 3043 c-31 -8 -73 -53 -87 -92 -7 -20 -12 -79 -12 -131 0 -75 5
-105 21 -142 44 -97 161 -107 216 -19 20 32 22 49 22 161 0 135 -11 174 -58
205 -27 17 -73 26 -102 18z m89 -76 c31 -43 36 -206 7 -271 -20 -47 -21 -47
-63 -44 -61 4 -78 40 -78 170 0 101 7 134 35 162 26 25 74 17 99 -17z"/>
<path d="M1540 3004 c-64 -50 -65 -51 -50 -69 11 -14 16 -13 46 10 18 14 35
25 38 25 3 0 6 -81 6 -180 l0 -180 25 0 25 0 0 215 0 215 -22 -1 c-13 0 -43
-16 -68 -35z"/>
<path d="M2620 3004 c-64 -50 -65 -51 -50 -69 11 -14 16 -13 46 10 18 14 35
25 38 25 3 0 6 -81 6 -180 l0 -180 25 0 25 0 0 215 0 215 -22 -1 c-13 0 -43
-16 -68 -35z"/>
<path d="M3700 3004 c-64 -50 -65 -51 -50 -69 11 -14 16 -13 46 10 18 14 35
25 38 25 3 0 6 -81 6 -180 l0 -180 25 0 25 0 0 215 0 215 -22 -1 c-13 0 -43
-16 -68 -35z"/>
<path d="M1164 2331 c-46 -28 -69 -95 -69 -201 1 -135 32 -199 106 -221 54
-17 106 11 137 71 21 41 23 56 20 160 -3 90 -7 122 -22 146 -37 62 -112 82
-172 45z m118 -52 c22 -26 31 -89 27 -188 -3 -61 -9 -86 -25 -108 -29 -39 -72
-42 -104 -8 -22 24 -25 36 -28 134 -3 81 0 116 12 144 24 58 80 70 118 26z"/>
<path d="M1884 2331 c-46 -28 -69 -95 -69 -201 1 -135 32 -199 106 -221 54
-17 106 11 137 71 21 40 23 56 20 155 -2 80 -8 120 -21 145 -33 67 -110 89
-173 51z m118 -52 c37 -43 38 -247 1 -297 -28 -38 -71 -41 -103 -7 -22 24 -25
36 -28 134 -3 81 0 116 12 144 24 58 80 70 118 26z"/>
<path d="M2244 2331 c-47 -29 -69 -95 -68 -206 0 -106 15 -155 54 -189 67 -56
147 -37 188 44 18 36 22 61 22 138 0 116 -14 164 -57 202 -40 36 -92 40 -139
11z m112 -42 c41 -33 46 -255 7 -307 -35 -48 -91 -42 -117 12 -21 45 -22 212
-1 261 20 50 72 65 111 34z"/>
<path d="M3324 2331 c-47 -29 -69 -95 -69 -206 1 -105 15 -155 55 -189 67 -56
147 -37 188 44 18 36 22 61 22 138 0 116 -14 164 -57 202 -40 36 -92 40 -139
11z m97 -31 c6 0 19 -21 31 -46 28 -65 23 -229 -8 -271 -36 -49 -92 -43 -118
11 -21 45 -22 212 -1 261 14 35 48 58 73 49 8 -2 18 -4 23 -4z"/>
<path d="M3684 2331 c-47 -29 -69 -95 -69 -206 1 -105 15 -155 55 -189 67 -56
147 -37 188 44 18 36 22 61 22 138 0 116 -14 164 -57 202 -40 36 -92 40 -139
11z m114 -49 c39 -51 43 -249 5 -300 -36 -48 -96 -42 -119 13 -19 46 -19 214
1 260 22 54 81 67 113 27z"/>
<path d="M1534 2303 c-27 -20 -51 -38 -53 -40 -3 -2 2 -11 11 -19 15 -15 19
-14 52 11 l36 27 0 -186 0 -186 25 0 25 0 0 215 0 215 -24 0 c-13 0 -45 -17
-72 -37z"/>
<path d="M2614 2303 c-27 -20 -50 -37 -52 -38 -6 -5 11 -35 20 -35 5 0 25 12
44 26 l34 26 0 -186 0 -186 25 0 25 0 0 215 0 215 -24 0 c-13 0 -45 -17 -72
-37z"/>
<path d="M2974 2303 c-27 -20 -50 -37 -52 -38 -6 -5 11 -35 20 -35 5 0 25 12
44 26 l34 26 0 -186 0 -186 25 0 25 0 0 215 0 215 -24 0 c-13 0 -45 -17 -72
-37z"/>
<path d="M1190 1643 c-29 -10 -70 -57 -82 -92 -7 -20 -12 -79 -12 -131 0 -79
4 -104 23 -142 46 -96 160 -106 214 -19 18 30 22 54 25 147 4 95 1 118 -16
157 -30 67 -94 101 -152 80z m94 -76 c19 -25 21 -42 21 -145 0 -98 -3 -121
-19 -145 -16 -24 -25 -28 -60 -25 -36 3 -43 8 -58 38 -18 36 -25 172 -12 238
15 73 86 95 128 39z"/>
<path d="M1904 1640 c-32 -13 -72 -66 -81 -108 -4 -20 -8 -76 -7 -123 1 -136
48 -209 133 -209 45 0 79 19 104 59 18 30 22 54 25 147 4 95 1 118 -16 157
-31 70 -96 102 -158 77z m100 -73 c16 -22 22 -47 25 -108 7 -156 -17 -213 -87
-207 -55 4 -72 45 -72 170 0 101 7 134 35 162 26 25 74 17 99 -17z"/>
<path d="M2264 1640 c-32 -13 -72 -66 -81 -108 -4 -20 -8 -76 -7 -123 1 -136
48 -209 133 -209 45 0 79 19 104 59 18 30 22 54 25 147 4 95 1 118 -16 157
-31 70 -96 102 -158 77z m100 -73 c16 -22 22 -47 25 -108 7 -156 -17 -213 -87
-207 -55 4 -72 45 -72 170 0 101 7 134 35 162 26 25 74 17 99 -17z"/>
<path d="M2624 1640 c-32 -13 -72 -66 -81 -108 -4 -20 -8 -76 -7 -123 1 -136
48 -209 134 -209 41 0 83 25 106 64 14 24 19 56 22 142 4 96 1 118 -16 157
-31 70 -96 102 -158 77z m100 -73 c16 -22 21 -46 24 -123 5 -112 -14 -180 -53
-190 -77 -19 -105 25 -105 168 0 101 7 134 35 162 25 25 74 17 99 -17z"/>
<path d="M3333 1634 c-54 -27 -78 -90 -78 -209 0 -84 4 -107 24 -148 28 -58
67 -81 124 -74 48 7 90 44 106 96 6 21 11 81 11 132 0 112 -21 167 -72 199
-40 24 -72 25 -115 4z m110 -66 c25 -34 36 -179 18 -245 -16 -57 -35 -75 -80
-71 -54 4 -71 45 -71 170 0 101 7 134 35 162 25 25 74 17 98 -16z"/>
<path d="M1535 1600 c-56 -44 -61 -52 -42 -68 10 -9 22 -4 50 19 l37 30 0
-185 0 -186 25 0 25 0 0 215 0 215 -22 -1 c-13 0 -45 -18 -73 -39z"/>
<path d="M2975 1600 c-56 -44 -61 -52 -42 -68 10 -9 22 -4 50 19 l37 30 0
-185 0 -186 25 0 25 0 0 215 0 215 -22 -1 c-13 0 -45 -18 -73 -39z"/>
<path d="M3695 1600 c-56 -44 -61 -52 -42 -68 10 -9 22 -4 50 19 l37 30 0
-185 0 -186 25 0 25 0 0 215 0 215 -22 -1 c-13 0 -45 -18 -73 -39z"/>
</g>
</svg>
